<svg width="1440" height="670" viewBox="0 0 1440 670" fill="none" xmlns="http://www.w3.org/2000/svg">
<g clip-path="url(#clip0_506_1108)">
<mask id="mask0_506_1108" style="mask-type:luminance" maskUnits="userSpaceOnUse" x="0" y="0" width="1440" height="670">
<path d="M1440 0H0V670H1440V0Z" fill="white"/>
</mask>
<g mask="url(#mask0_506_1108)">
<g opacity="0.3" filter="url(#filter0_f_506_1108)">
<path d="M787.262 534.189C730.311 541.909 710.377 489.015 634.5 509.362C538.744 535.041 246.058 342.36 264 457.511C288 611.54 628.254 843.5 757.077 826.039C885.9 808.578 956.101 778.709 980.058 746.029C1032.26 674.823 916.085 516.728 787.262 534.189Z" fill="url(#paint0_linear_506_1108)"/>
<path d="M765.892 535.535C629.959 558.661 465 618.148 616.535 690.195C634.829 715.542 813.783 748.255 949.717 725.129C1085.65 702.003 1195.42 435.543 1159 349.234C1122.58 262.925 901.826 512.408 765.892 535.535Z" fill="url(#paint1_linear_506_1108)"/>
</g>
</g>
</g>
<defs>
<filter id="filter0_f_506_1108" x="-36.79" y="31.1543" width="1502.85" height="1095.82" filterUnits="userSpaceOnUse" color-interpolation-filters="sRGB">
<feFlood flood-opacity="0" result="BackgroundImageFix"/>
<feBlend mode="normal" in="SourceGraphic" in2="BackgroundImageFix" result="shape"/>
<feGaussianBlur stdDeviation="150" result="effect1_foregroundBlur_506_1108"/>
</filter>
<linearGradient id="paint0_linear_506_1108" x1="310.643" y1="568.815" x2="598.71" y2="768.863" gradientUnits="userSpaceOnUse">
<stop stop-color="#5FECFF"/>
<stop offset="1" stop-color="#0085FF"/>
</linearGradient>
<linearGradient id="paint1_linear_506_1108" x1="957.301" y1="375.347" x2="743.459" y2="595.412" gradientUnits="userSpaceOnUse">
<stop stop-color="#FFB951"/>
<stop offset="1" stop-color="#F90068"/>
</linearGradient>
<clipPath id="clip0_506_1108">
<rect width="1440" height="670" fill="white"/>
</clipPath>
</defs>
</svg>
