<svg width="800" height="800" viewBox="0 0 800 800" fill="none" xmlns="http://www.w3.org/2000/svg">
<path d="M700 300V100M700 100H500M700 100L433.333 366.667M333.333 166.667H260C203.995 166.667 175.992 166.667 154.601 177.566C135.785 187.153 120.487 202.451 110.899 221.268C100 242.659 100 270.661 100 326.667V540C100 596.007 100 624.007 110.899 645.4C120.487 664.217 135.785 679.513 154.601 689.1C175.992 700 203.995 700 260 700H473.333C529.34 700 557.34 700 578.733 689.1C597.55 679.513 612.847 664.217 622.433 645.4C633.333 624.007 633.333 596.007 633.333 540V466.667" stroke="white" stroke-width="66.6667" stroke-linecap="round" stroke-linejoin="round"/>
</svg>
